<svg width="32" height="32" viewBox="0 0 32 32" fill="none" xmlns="http://www.w3.org/2000/svg">
  <rect width="32" height="32" fill="#111714"/>
  <!-- Main center circle -->
  <circle cx="16" cy="16" r="6" fill="white"/>
  <!-- Surrounding circles -->
  <circle cx="8" cy="12" r="1.5" fill="white"/>
  <circle cx="6" cy="16" r="1" fill="white"/>
  <circle cx="8" cy="20" r="1.5" fill="white"/>
  <circle cx="12" cy="24" r="1" fill="white"/>
  <circle cx="16" cy="26" r="1.5" fill="white"/>
  <circle cx="20" cy="24" r="1" fill="white"/>
  <circle cx="24" cy="20" r="1.5" fill="white"/>
  <circle cx="26" cy="16" r="1" fill="white"/>
  <circle cx="24" cy="12" r="1.5" fill="white"/>
  <circle cx="20" cy="8" r="1" fill="white"/>
  <circle cx="16" cy="6" r="1.5" fill="white"/>
  <circle cx="12" cy="8" r="1" fill="white"/>
  <!-- Additional scattered dots -->
  <circle cx="4" cy="10" r="0.5" fill="white"/>
  <circle cx="2" cy="18" r="0.5" fill="white"/>
  <circle cx="6" cy="26" r="0.5" fill="white"/>
  <circle cx="14" cy="28" r="0.5" fill="white"/>
  <circle cx="22" cy="28" r="0.5" fill="white"/>
  <circle cx="28" cy="22" r="0.5" fill="white"/>
  <circle cx="30" cy="14" r="0.5" fill="white"/>
  <circle cx="28" cy="6" r="0.5" fill="white"/>
  <circle cx="18" cy="4" r="0.5" fill="white"/>
  <circle cx="10" cy="4" r="0.5" fill="white"/>
</svg>